<svg xmlns="http://www.w3.org/2000/svg" fill="#5dc2e6" viewBox="0 0 511.65 511.65" style="enable-background:new 0 0 511.653 511.653" xml:space="preserve"><path d="M506.88 306.17c-15.36-20.48-30.72-20.48-68.27-.85l-73.38 45.23c-10.24 5.97-33.28 7.68-54.62 7.68 4.27-7.68 2.56-17.07-5.12-28.16a72.63 72.63 0 0 0-20.99-19.97l56.83-56.83a8.25 8.25 0 0 0 0-11.95l-96.42-96.43a8.25 8.25 0 0 0-11.95 0l-96.43 96.43a8.25 8.25 0 0 0 0 11.95l35.16 35.16a80.8 80.8 0 0 1-9.56-6.15c-30.79-23.1-78.94 2.04-102.4 17.02v-17.87H0V503.3h59.73v-25.6h110.94c17.06 0 34.98-1.71 52.05-2.56l110.93-17.07c4.27 0 8.54-.85 11.95-1.7 10.24-1.72 19.63-6.84 28.16-14.52L502.6 340.31c10.24-8.54 11.95-23.9 4.27-34.14zM154.45 247.3l84.48-84.48 84.48 84.48-55.14 55.14a76.38 76.38 0 0 0-24.22-3.94h-33.28a80.1 80.1 0 0 1-5.3-.19l-51.02-51zM42.67 486.23h-25.6V298.49h25.6v187.74zm449.7-158.72L362.67 428.2l-.86.85a29.61 29.61 0 0 1-19.62 10.24c-3.42.86-5.98.86-9.39.86L220.16 457.2c-16.21 2.56-33.28 3.42-49.5 3.42H59.74v-140.8C80.21 305.32 128 278 151.9 295.93c14.53 11.47 33.17 18.13 52.23 19.4 2.22.22 4.43.23 6.65.23h33.28a59.82 59.82 0 0 1 48.64 24.75c3.42 5.12 4.27 10.24 3.42 11.94-2.56 4.27-12.8 5.98-23.9 6.83h-91.3c-26.46 0-42.67 12.8-42.67 34.13 0 5.12 3.41 8.54 8.53 8.54 5.12 0 8.54-3.42 8.54-8.54 0-4.26 0-17.06 25.6-17.06h96.42c40.11.85 77.66 0 97.28-10.24L448 320.68c35.84-17.92 39.25-13.65 46.08-3.41 1.7 2.56 1.7 7.68-1.7 10.24z"/><path d="M185.17 241.32c-3.41 3.41-3.41 8.53 0 11.95s8.54 3.41 11.95 0a10.25 10.25 0 0 0 0-11.95 8.25 8.25 0 0 0-11.95 0zM244.9 253.27c3.42-3.42 3.42-8.54 0-11.95s-8.53-3.41-11.94 0-3.41 8.53 0 11.95 8.53 3.41 11.95 0zM293.55 253.27c3.41-3.42 3.41-8.54 0-11.95s-8.54-3.41-11.95 0-3.41 8.53 0 11.95 8.53 3.41 11.95 0zM324.27 161.96H460.8c5.12 0 8.53-3.41 8.53-8.53V16.89c0-5.12-3.41-8.53-8.53-8.53H324.27c-5.12 0-8.54 3.41-8.54 8.53v136.54c0 5.12 3.42 8.53 8.54 8.53zm8.53-136.53h119.47v119.46H332.8V25.43z"/><path d="M358.4 42.5c-5.12 0-8.53 3.4-8.53 8.53s3.41 8.53 8.53 8.53 8.53-3.41 8.53-8.53-3.41-8.54-8.53-8.54zM426.67 42.5c-5.12 0-8.54 3.4-8.54 8.53s3.42 8.53 8.54 8.53 8.53-3.41 8.53-8.53-3.41-8.54-8.53-8.54zM358.4 110.76c-5.12 0-8.53 3.41-8.53 8.53s3.41 8.54 8.53 8.54 8.53-3.42 8.53-8.54-3.41-8.53-8.53-8.53zM392.53 76.63c-5.12 0-8.53 3.4-8.53 8.53s3.41 8.53 8.53 8.53c5.12 0 8.54-3.41 8.54-8.53s-3.42-8.53-8.54-8.53zM426.67 110.76c-5.12 0-8.54 3.41-8.54 8.53s3.42 8.54 8.54 8.54 8.53-3.42 8.53-8.54-3.41-8.53-8.53-8.53z"/></svg>
