<svg xmlns="http://www.w3.org/2000/svg" viewBox="0 0 435.88 435.88" fill="#0be0a0" style="enable-background:new 0 0 435.882 435.882" xml:space="preserve"><path d="M435.4 168.16a10 10 0 0 0-6.67-6.5l-127.28-37.78-75.27-109.37a10 10 0 0 0-16.48 0l-75.26 109.37L7.16 161.67a10 10 0 0 0-5.1 15.67l80.77 105.38-3.4 132.73a10 10 0 0 0 13.33 9.68l125.18-44.24 125.18 44.24a9.98 9.98 0 0 0 9.21-1.33 10 10 0 0 0 4.12-8.35l-3.4-132.73 80.77-105.38a10 10 0 0 0 1.57-9.18zm-100.37 105.2a10 10 0 0 0-2.06 6.34l3.12 121.73-114.82-40.58a9.99 9.99 0 0 0-6.66 0L99.79 401.43l3.12-121.73a10 10 0 0 0-2.06-6.34l-74.07-96.65 116.73-34.66a10 10 0 0 0 5.4-3.92l69.03-100.31 69.03 100.31a10 10 0 0 0 5.4 3.92l116.73 34.66-74.07 96.65z"/><path d="M169.44 176.18c-13.78 0-25 11.21-25 25v46c0 13.78 11.22 25 25 25s25-11.22 25-25v-46c0-13.79-11.21-25-25-25zm5 71a5 5 0 0 1-10 0v-46a5 5 0 0 1 10 0v46zM266.44 176.18c-13.78 0-25 11.21-25 25v46c0 13.78 11.22 25 25 25 13.79 0 25-11.22 25-25v-46c0-13.79-11.21-25-25-25zm5 71a5 5 0 0 1-10 0v-46a5 5 0 0 1 10 0v46z"/></svg>
